<svg width="28" height="28" viewBox="0 0 28 28" fill="none" xmlns="http://www.w3.org/2000/svg">
<path fill-rule="evenodd" clip-rule="evenodd" d="M12.4369 5.57441C13.3002 4.80967 14.6998 4.80967 15.5631 5.57441L19.7225 9.25916C20.0925 9.58691 20.0925 10.1183 19.7225 10.446C19.3526 10.7738 18.7527 10.7738 18.3827 10.446L14.9474 7.40273L14.9474 22.1616C14.9474 22.6251 14.5232 23.0009 14 23.0009C13.4768 23.0009 13.0526 22.6251 13.0526 22.1616L13.0526 7.40273L9.61726 10.446C9.24729 10.7738 8.64745 10.7738 8.27748 10.446C7.90751 10.1183 7.90751 9.58691 8.27748 9.25916L12.4369 5.57441L13.1068 6.16785L13.1215 6.18087M12.4369 5.57441L13.1068 6.16785L12.4369 5.57441Z" fill="#149AD6"/>
</svg>
