<svg width="40" height="40" viewBox="0 0 40 40" fill="none" xmlns="http://www.w3.org/2000/svg">
<path fill-rule="evenodd" clip-rule="evenodd" d="M12.2162 0.202329C14.6137 -0.74103 17.4236 1.92287 19.9999 1.92287C22.5764 1.92287 25.3863 -0.741158 27.7838 0.202168C28.0234 0.296479 28.261 0.395017 28.4964 0.497691C30.8569 1.52748 30.9616 5.39557 32.7826 7.21662C34.6037 9.03775 38.4721 9.14219 39.5021 11.5027C39.6048 11.7382 39.7034 11.9759 39.7978 12.2157C40.7412 14.6132 38.0771 17.4233 38.0771 19.9997C38.0771 22.5762 40.7414 25.3862 39.798 27.7838C39.7041 28.0225 39.606 28.2591 39.5037 28.4936C38.4741 30.8547 34.6042 30.959 32.7828 32.7804C30.9613 34.602 30.8574 38.4724 28.4962 39.5025C28.2612 39.605 28.0239 39.7035 27.7845 39.7977C25.3868 40.7412 22.5765 38.0765 19.9999 38.0765C17.4234 38.0765 14.6131 40.741 12.2155 39.7975C11.9761 39.7033 11.7388 39.6049 11.5037 39.5023C9.14297 38.4724 9.03863 34.6035 7.21738 32.7822C5.39619 30.961 1.52746 30.8565 0.497643 28.4958C0.394981 28.2605 0.296453 28.0229 0.202152 27.7832C-0.741098 25.3858 1.92271 22.576 1.92271 19.9997C1.92271 17.4234 -0.740912 14.6137 0.202389 12.2163C0.296877 11.9762 0.395608 11.7382 0.49849 11.5024C1.52846 9.14196 5.39644 9.03742 7.2175 7.21636C9.03847 5.39539 9.14325 1.52767 11.5036 0.49787C11.739 0.39519 11.9766 0.296646 12.2162 0.202329Z" fill="#149AD6"/>
<path d="M14.8953 20.5618L18.6665 24.333L26.209 16.7905" stroke="white" stroke-width="2" stroke-linecap="round" stroke-linejoin="round"/>
</svg>
