<svg width="32" height="32" viewBox="0 0 32 32" fill="none" xmlns="http://www.w3.org/2000/svg">
<g clip-path="url(#clip0_157_3367)">
<path d="M16 8C20.4183 8 24 11.5817 24 16C24 20.4183 20.4183 24 16 24C11.5817 24 8 20.4183 8 16C8 11.5817 11.5817 8 16 8ZM18.4657 12.2602L16 14.727L13.5357 12.2602C13.1842 11.9088 12.6144 11.9088 12.2629 12.2602C11.9114 12.6117 11.9114 13.1815 12.2629 13.533L14.728 16.001L12.2629 18.47C11.9114 18.8215 11.9114 19.3913 12.2629 19.7428C12.6144 20.0943 13.1842 20.0943 13.5357 19.7428L16 17.275L18.4657 19.7428C18.8172 20.0943 19.387 20.0943 19.7385 19.7428C20.09 19.3913 20.09 18.8215 19.7385 18.47L17.272 16.001L19.7385 13.533C20.09 13.1815 20.09 12.6117 19.7385 12.2602C19.387 11.9088 18.8172 11.9088 18.4657 12.2602Z" fill="#90939A"/>
</g>
<defs>
<clipPath id="clip0_157_3367">
<rect width="16" height="16" fill="white" transform="translate(8 8)"/>
</clipPath>
</defs>
</svg>
