<svg width="24" height="24" viewBox="0 0 24 24" fill="none" xmlns="http://www.w3.org/2000/svg">
<g id="Iconex/Light/Edit 2">
<g id="Edit 2">
<path id="Union" fill-rule="evenodd" clip-rule="evenodd" d="M17.7157 4.55526C16.9719 3.81452 15.7664 3.81497 15.0231 4.55627L9.27431 10.2908C8.81451 10.7493 8.5442 11.3632 8.51684 12.0109L8.435 13.9484C8.39774 14.8306 9.10534 15.5661 9.99138 15.5662L11.8976 15.5663C12.5974 15.5663 13.2677 15.2848 13.7563 14.7855L19.4589 8.94114C20.1868 8.19735 20.1792 7.0084 19.4417 6.27398L17.7157 4.55526ZM15.7577 5.28785C16.0956 4.9509 16.6436 4.95069 16.9817 5.28739L18.7076 7.00612C19.0428 7.33994 19.0463 7.88037 18.7154 8.21846L17.5701 9.38862L14.6058 6.43669L15.7577 5.28785ZM13.8717 7.16882L10.0089 11.0224C9.73307 11.2975 9.57088 11.6658 9.55447 12.0544L9.47263 13.9919C9.46021 14.286 9.69608 14.5312 9.99142 14.5312L11.8976 14.5313C12.3176 14.5313 12.7197 14.3624 13.0129 14.0628L16.8449 10.1296L13.8717 7.16882Z" fill="#149AD6"/>
<path id="Rectangle 74 (Stroke)" fill-rule="evenodd" clip-rule="evenodd" d="M8.43373 6.12048C6.62384 6.12048 5.15663 7.58769 5.15663 9.39759V15.5663C5.15663 17.3762 6.62384 18.8434 8.43373 18.8434H14.6024C16.4123 18.8434 17.8795 17.3762 17.8795 15.5663V12.4819C17.8795 12.1625 18.1384 11.9036 18.4578 11.9036C18.7772 11.9036 19.0361 12.1625 19.0361 12.4819V15.5663C19.0361 18.0149 17.0511 20 14.6024 20H8.43373C5.98505 20 4 18.0149 4 15.5663V9.39759C4 6.9489 5.98505 4.96385 8.43373 4.96385H11.5181C11.8375 4.96385 12.0964 5.22277 12.0964 5.54217C12.0964 5.86156 11.8375 6.12048 11.5181 6.12048H8.43373Z" fill="#149AD6"/>
</g>
</g>
</svg>
