<svg width="24" height="12" viewBox="-4 0 24 12" fill="none" xmlns="http://www.w3.org/2000/svg">
<g id="&#226;&#134;&#179; Icon Color">
<path fill-rule="evenodd" clip-rule="evenodd" d="M2.8246 3.5625C3.16498 4.65098 4.14611 5.4375 5.30337 5.4375C6.46063 5.4375 7.44176 4.65098 7.78214 3.5625C10.2518 3.5625 12.7214 3.5625 15.191 3.5625C15.6378 3.5625 16 3.18474 16 2.71875C16 2.25276 15.6378 1.875 15.191 1.875C12.7214 1.875 10.2518 1.875 7.78214 1.875C7.77341 1.84653 7.7851 1.88447 7.78214 1.875C7.44176 0.786524 6.46063 0 5.30337 0C4.14611 0 3.16498 0.786524 2.8246 1.875C2.15273 1.875 1.48086 1.875 0.808989 1.875C0.362197 1.875 0 2.25276 0 2.71875C0 3.18474 0.362197 3.5625 0.808989 3.5625C1.48086 3.5625 2.15273 3.5625 2.8246 3.5625ZM5.30337 1.6875C4.75729 1.6875 4.31461 2.14921 4.31461 2.71875C4.31461 3.28829 4.75729 3.75 5.30337 3.75C5.84945 3.75 6.29214 3.28829 6.29214 2.71875C6.29214 2.14921 5.84945 1.6875 5.30337 1.6875Z" fill="#010612"/>
<path fill-rule="evenodd" clip-rule="evenodd" d="M0 9.28125C0 8.81526 0.362197 8.4375 0.808989 8.4375C3.27861 8.4375 5.74824 8.4375 8.21786 8.4375C8.55824 7.34902 9.53937 6.5625 10.6966 6.5625C11.8539 6.5625 12.835 7.34902 13.1754 8.4375C13.1754 8.4375 14.7223 8.4375 15.191 8.4375C15.6378 8.4375 16 8.81526 16 9.28125C16 9.74724 15.6378 10.125 15.191 10.125C14.9912 10.125 13.1754 10.125 13.1754 10.125C12.835 11.2135 11.8539 12 10.6966 12C9.53937 12 8.55824 11.2135 8.21786 10.125C5.74824 10.125 3.27861 10.125 0.808989 10.125C0.362197 10.125 0 9.74724 0 9.28125ZM9.70787 9.28125C9.70787 8.71171 10.1506 8.25 10.6966 8.25C11.2427 8.25 11.6854 8.71171 11.6854 9.28125C11.6854 9.85079 11.2427 10.3125 10.6966 10.3125C10.1506 10.3125 9.70787 9.85079 9.70787 9.28125Z" fill="#010612"/>
</g>
</svg>
