<svg width="16" height="16" viewBox="0 0 16 16" fill="none" xmlns="http://www.w3.org/2000/svg">
<g id="Iconex/Filled/Folder">
<g id="Vector">
<path fill-rule="evenodd" clip-rule="evenodd" d="M4.66634 2.5C3.10153 2.5 1.83301 3.76853 1.83301 5.33333V10.6667C1.83301 12.2315 3.10153 13.5 4.66634 13.5H11.333C12.8978 13.5 14.1663 12.2315 14.1663 10.6667V7.66667C14.1663 6.10186 12.8978 4.83333 11.333 4.83333H9.69558C8.8882 4.83333 8.13052 4.44342 7.66124 3.78643C7.09613 2.99527 6.70939 2.5 5.97044 2.5H4.66634ZM7.99967 10.5C7.72353 10.5 7.49967 10.7239 7.49967 11C7.49967 11.2761 7.72353 11.5 7.99967 11.5H11.9997C12.2758 11.5 12.4997 11.2761 12.4997 11C12.4997 10.7239 12.2758 10.5 11.9997 10.5H7.99967Z" fill="#90939A"/>
<path d="M7.33301 3.34068V5.66667H13.3399C12.8269 5.1519 12.1172 4.83333 11.333 4.83333H9.69558C8.8882 4.83333 8.13052 4.44342 7.66124 3.78643C7.5459 3.62495 7.438 3.47581 7.33301 3.34068Z" fill="#90939A"/>
<path d="M8.07835 2.66667C8.20631 2.82822 8.32209 2.9907 8.43024 3.14246L8.47498 3.20519C8.75654 3.59938 9.21115 3.83333 9.69558 3.83333H11.333C12.3062 3.83333 13.1946 4.19596 13.8706 4.79345C13.4967 3.56251 12.3528 2.66667 10.9997 2.66667H8.07835Z" fill="#90939A"/>
</g>
</g>
</svg>
