<svg width="18" height="18" viewBox="0 0 18 18" fill="none" xmlns="http://www.w3.org/2000/svg">
<g id="Info circle">
<path id="Subtract" fill-rule="evenodd" clip-rule="evenodd" d="M0 9C0 4.02944 4.02944 0 9 0C13.9706 0 18 4.02944 18 9C18 13.9706 13.9706 18 9 18C4.02944 18 0 13.9706 0 9ZM10.0937 8.1621C10.0937 7.7893 9.79154 7.4871 9.41875 7.4871H7.74433C7.37154 7.4871 7.06933 7.7893 7.06933 8.1621C7.06933 8.53489 7.37154 8.8371 7.74433 8.8371H8.74375V13.1854C8.74375 13.5581 9.04596 13.8604 9.41875 13.8604C9.79154 13.8604 10.0937 13.5581 10.0937 13.1854V8.1621ZM10.0937 4.81326C10.0937 4.44047 9.79154 4.13826 9.41875 4.13826C9.04596 4.13826 8.74375 4.44047 8.74375 4.81326V5.65047C8.74375 6.02326 9.04596 6.32547 9.41875 6.32547C9.79154 6.32547 10.0937 6.02326 10.0937 5.65047V4.81326Z" fill="#CCCDD0"/>
</g>
</svg>
