<svg width="22" height="23" viewBox="0 0 22 23" fill="none" xmlns="http://www.w3.org/2000/svg">
<g id="Key">
<path id="Rectangle 74 (Stroke)" fill-rule="evenodd" clip-rule="evenodd" d="M0 6.71404C0 3.28212 2.78212 0.5 6.21404 0.5H15.786C19.2179 0.5 22 3.28212 22 6.71404V16.286C22 19.7179 19.2179 22.5 15.786 22.5H6.21404C2.78212 22.5 0 19.7179 0 16.286V6.71404ZM6.21404 2.12105C3.6774 2.12105 1.62105 4.1774 1.62105 6.71404V16.286C1.62105 18.8226 3.6774 20.8789 6.21404 20.8789H15.786C18.3226 20.8789 20.3789 18.8226 20.3789 16.286V6.71404C20.3789 4.1774 18.3226 2.12105 15.786 2.12105H6.21404Z" fill="#149AD6"/>
<g id="Group 214">
<path id="Line (Stroke)" fill-rule="evenodd" clip-rule="evenodd" d="M8.66162 12.0059C8.66162 12.4535 9.02451 12.8164 9.47215 12.8164L16.6048 12.8164C17.0524 12.8164 17.4153 12.4535 17.4153 12.0059C17.4153 11.5582 17.0524 11.1954 16.6048 11.1954L9.47215 11.1954C9.02451 11.1954 8.66162 11.5582 8.66162 12.0059Z" fill="#149AD6"/>
<g id="Group 215">
<path id="Line (Stroke)_2" fill-rule="evenodd" clip-rule="evenodd" d="M16.6045 11.1953C16.1568 11.1953 15.7939 11.5582 15.7939 12.0058L15.7939 14.0437C15.7939 14.4914 16.1568 14.8543 16.6045 14.8543C17.0521 14.8543 17.415 14.4914 17.415 14.0437L17.415 12.0058C17.415 11.5582 17.0521 11.1953 16.6045 11.1953Z" fill="#149AD6"/>
<path id="Line (Stroke)_3" fill-rule="evenodd" clip-rule="evenodd" d="M14.0571 11.1953C14.5048 11.1953 14.8677 11.5582 14.8677 12.0058L14.8677 14.0437C14.8677 14.4914 14.5048 14.8543 14.0571 14.8543C13.6095 14.8543 13.2466 14.4914 13.2466 14.0437L13.2466 12.0058C13.2466 11.5582 13.6095 11.1953 14.0571 11.1953Z" fill="#149AD6"/>
</g>
<path id="Ellipse 33 (Stroke)" fill-rule="evenodd" clip-rule="evenodd" d="M7.43381 13.2344C8.11166 13.2344 8.66117 12.6849 8.66117 12.0071C8.66117 11.3292 8.11166 10.7797 7.43381 10.7797C6.75595 10.7797 6.20644 11.3292 6.20644 12.0071C6.20644 12.6849 6.75595 13.2344 7.43381 13.2344ZM10.2822 12.0071C10.2822 13.5802 9.00695 14.8555 7.43381 14.8555C5.86067 14.8555 4.58538 13.5802 4.58538 12.0071C4.58538 10.4339 5.86067 9.15866 7.43381 9.15866C9.00695 9.15866 10.2822 10.4339 10.2822 12.0071Z" fill="#149AD6"/>
</g>
</g>
</svg>
