<svg width="18" height="22" viewBox="0 0 18 22" fill="none" xmlns="http://www.w3.org/2000/svg">
<g id="Document 2">
<path id="Rectangle 74 (Stroke)" fill-rule="evenodd" clip-rule="evenodd" d="M4.88571 1.53488C3.03951 1.53488 1.54286 3.0238 1.54286 4.86047V17.1395C1.54286 18.9762 3.0395 20.4651 4.88571 20.4651H13.1143C14.9605 20.4651 16.4571 18.9762 16.4571 17.1395V7.64792C16.4571 7.34869 16.3517 7.05894 16.1591 6.82908L12.1099 1.99511C11.8656 1.70349 11.5038 1.53488 11.1222 1.53488H4.88571ZM0 4.86047C0 2.17611 2.18741 0 4.88571 0H11.1222C11.9617 0 12.7578 0.370944 13.2952 1.0125L17.3444 5.84647C17.768 6.35218 18 6.98963 18 7.64792V17.1395C18 19.8239 15.8126 22 13.1143 22H4.88571C2.18741 22 0 19.8239 0 17.1395V4.86047Z" fill="#149AD6"/>
<path id="Vector 139 (Stroke)" fill-rule="evenodd" clip-rule="evenodd" d="M12.0859 0.511719C12.5119 0.511719 12.8573 0.855314 12.8573 1.27916V4.86056C12.8573 5.56697 13.4329 6.13962 14.143 6.13962H16.7145C17.1405 6.13962 17.4859 6.48322 17.4859 6.90707C17.4859 7.33091 17.1405 7.67451 16.7145 7.67451H14.143C12.5808 7.67451 11.3145 6.41466 11.3145 4.86056V1.27916C11.3145 0.855314 11.6598 0.511719 12.0859 0.511719Z" fill="#149AD6"/>
<path id="Vector 133 (Stroke)" fill-rule="evenodd" clip-rule="evenodd" d="M4.11426 11.0018C4.11426 10.578 4.45964 10.2344 4.88569 10.2344H13.1143C13.5403 10.2344 13.8857 10.578 13.8857 11.0018C13.8857 11.4257 13.5403 11.7693 13.1143 11.7693H4.88569C4.45964 11.7693 4.11426 11.4257 4.11426 11.0018Z" fill="#149AD6"/>
<path id="Vector 134 (Stroke)" fill-rule="evenodd" clip-rule="evenodd" d="M4.11426 16.1171C4.11426 15.6932 4.45964 15.3496 4.88569 15.3496H8.99997C9.42602 15.3496 9.7714 15.6932 9.7714 16.1171C9.7714 16.5409 9.42602 16.8845 8.99997 16.8845H4.88569C4.45964 16.8845 4.11426 16.5409 4.11426 16.1171Z" fill="#149AD6"/>
</g>
</svg>
