<svg width="28" height="28" viewBox="0 0 28 28" fill="none" xmlns="http://www.w3.org/2000/svg">
<path fill-rule="evenodd" clip-rule="evenodd" d="M8.4186 4.69231C5.79846 4.69231 3.67442 6.83905 3.67442 9.48718V18.5128C3.67442 21.161 5.79846 23.3077 8.4186 23.3077H19.5814C22.2015 23.3077 24.3256 21.161 24.3256 18.5128V13.4359C24.3256 10.7878 22.2015 8.64103 19.5814 8.64103H16.8397C15.4878 8.64103 14.2191 7.98117 13.4333 6.86934L12.646 5.75532L12.8837 5.58371L12.646 5.75532C12.1745 5.08822 11.4133 4.69231 10.6022 4.69231H8.4186ZM13.4483 4.12821C12.6818 3.41001 11.6679 3 10.6022 3H8.4186C4.87371 3 2 5.90441 2 9.48718V18.5128C2 22.0956 4.87371 25 8.4186 25H19.5814C23.1263 25 26 22.0956 26 18.5128V13.4359C26 12.0752 25.5855 10.8124 24.8772 9.76937C24.7316 6.62905 22.1664 4.12821 19.0233 4.12821H13.4483ZM14.7498 5.82051L14.7959 5.88571C15.2673 6.5528 16.0285 6.94872 16.8397 6.94872H19.5814C20.6168 6.94872 21.595 7.19652 22.461 7.63663C21.7048 6.53892 20.447 5.82051 19.0233 5.82051H14.7498Z" fill="#149AD6"/>
<path fill-rule="evenodd" clip-rule="evenodd" d="M13.1621 19.0766C13.1621 18.6093 13.5369 18.2305 13.9993 18.2305H20.697C21.1594 18.2305 21.5342 18.6093 21.5342 19.0766C21.5342 19.5439 21.1594 19.9228 20.697 19.9228H13.9993C13.5369 19.9228 13.1621 19.5439 13.1621 19.0766Z" fill="#149AD6"/>
</svg>
