<svg width="28" height="28" viewBox="0 0 28 28" fill="none" xmlns="http://www.w3.org/2000/svg">
<path fill-rule="evenodd" clip-rule="evenodd" d="M14.0005 4.76452C16.0849 4.76452 17.7747 6.47618 17.7747 8.58763C17.7747 10.6991 16.0849 12.4108 14.0005 12.4108C11.916 12.4108 10.2263 10.6991 10.2263 8.58763C10.2263 6.47618 11.916 4.76452 14.0005 4.76452ZM19.5166 8.58763C19.5166 5.50167 17.0469 3 14.0005 3C10.954 3 8.48434 5.50167 8.48434 8.58763C8.48434 11.6736 10.954 14.1753 14.0005 14.1753C17.0469 14.1753 19.5166 11.6736 19.5166 8.58763Z" fill="#149AD6"/>
<path fill-rule="evenodd" clip-rule="evenodd" d="M20.2671 18.8505C16.2144 17.3843 11.7856 17.3843 7.73292 18.8505C7.13863 19.0655 6.74194 19.6357 6.74194 20.2749V21.8224C6.74194 22.6823 7.49383 23.3429 8.33423 23.2213L9.44258 23.0609C12.4655 22.6234 15.5345 22.6234 18.5574 23.0609L19.6658 23.2213C20.5062 23.3429 21.2581 22.6823 21.2581 21.8224V20.2749C21.2581 19.6357 20.8614 19.0655 20.2671 18.8505ZM7.14704 17.1887C11.5786 15.5855 16.4214 15.5855 20.853 17.1887C22.1405 17.6545 23 18.89 23 20.2749V21.8224C23 23.7561 21.3092 25.2415 19.4194 24.9681L18.3111 24.8077C15.4515 24.3939 12.5485 24.3939 9.68893 24.8077L8.58058 24.9681C6.69078 25.2415 5 23.7561 5 21.8224V20.2749C5 18.89 5.85948 17.6545 7.14704 17.1887Z" fill="#149AD6"/>
</svg>
