<svg width="28" height="29" viewBox="0 0 28 29" fill="none" xmlns="http://www.w3.org/2000/svg">
<g id="icons">
<path id="Vector (Stroke)" fill-rule="evenodd" clip-rule="evenodd" d="M4.62353 5.27182C7.35907 4.24273 10.4084 4.24273 13.1439 5.27182L14 5.59388L14.8561 5.27182C17.5916 4.24273 20.6409 4.24273 23.3765 5.27182C24.3331 5.63171 25 6.52292 25 7.55589V21.7637C25 23.3177 23.3809 24.2394 22.0138 23.7251C20.1545 23.0257 18.0781 23.0257 16.2188 23.7251L14.2837 24.4531C14.194 24.4868 14.0972 24.5021 14 24.4998C13.9028 24.5021 13.806 24.4868 13.7163 24.4531L11.7812 23.7251C9.92194 23.0257 7.8455 23.0257 5.98623 23.7251C4.61912 24.2394 3 23.3177 3 21.7637V7.55589C3 6.52292 3.66689 5.63171 4.62353 5.27182ZM14.7674 22.6276L15.6795 22.2845C17.8865 21.4543 20.3461 21.4543 22.553 22.2845C23.0531 22.4727 23.4651 22.1011 23.4651 21.7637V7.55589C23.4651 7.21147 23.2404 6.86407 22.8372 6.71241C20.4493 5.8141 17.7832 5.8141 15.3954 6.71241L14.7674 6.94863V22.6276ZM13.2326 6.94863L12.6046 6.71241C10.2168 5.8141 7.55066 5.8141 5.1628 6.71241C4.75964 6.86407 4.53488 7.21147 4.53488 7.55589V21.7637C4.53488 22.1011 4.94687 22.4727 5.44696 22.2845C7.65391 21.4543 10.1135 21.4543 12.3205 22.2845L13.2326 22.6276V6.94863Z" fill="#149AD6"/>
</g>
</svg>
