<svg width="22" height="23" viewBox="0 0 22 23" fill="none" xmlns="http://www.w3.org/2000/svg">
<g id="Info square">
<path id="Rectangle 74 (Stroke)" fill-rule="evenodd" clip-rule="evenodd" d="M0 6.71404C0 3.28212 2.78212 0.5 6.21404 0.5H15.786C19.2179 0.5 22 3.28212 22 6.71404V16.286C22 19.7179 19.2179 22.5 15.786 22.5H6.21404C2.78212 22.5 0 19.7179 0 16.286V6.71404ZM6.21404 2.12105C3.6774 2.12105 1.62105 4.1774 1.62105 6.71404V16.286C1.62105 18.8226 3.6774 20.8789 6.21404 20.8789H15.786C18.3226 20.8789 20.3789 18.8226 20.3789 16.286V6.71404C20.3789 4.1774 18.3226 2.12105 15.786 2.12105H6.21404Z" fill="#149AD6"/>
<g id="Group 216">
<path id="Line (Stroke)" fill-rule="evenodd" clip-rule="evenodd" d="M11.5503 9.65039C11.9645 9.65039 12.3003 9.98618 12.3003 10.4004L12.3003 17.0004C12.3003 17.4146 11.9645 17.7504 11.5503 17.7504C11.1361 17.7504 10.8003 17.4146 10.8003 17.0004L10.8003 10.4004C10.8003 9.98618 11.1361 9.65039 11.5503 9.65039Z" fill="#149AD6"/>
<path id="Line" d="M9.35029 10.4004L11.5503 10.4004" stroke="#149AD6" stroke-width="1.5" stroke-linecap="round" stroke-linejoin="round"/>
<path id="Line (Stroke)_2" fill-rule="evenodd" clip-rule="evenodd" d="M11.5503 5.25C11.9645 5.25 12.3003 5.58579 12.3003 6L12.3003 7.1C12.3003 7.51421 11.9645 7.85 11.5503 7.85C11.1361 7.85 10.8003 7.51421 10.8003 7.1L10.8003 6C10.8003 5.58579 11.1361 5.25 11.5503 5.25Z" fill="#149AD6"/>
</g>
</g>
</svg>
