<svg width="22" height="22" viewBox="0 0 22 22" fill="none" xmlns="http://www.w3.org/2000/svg">
<g id="Message circle">
<path id="Union (Stroke)" fill-rule="evenodd" clip-rule="evenodd" d="M11 1.53488C5.77256 1.53488 1.53488 5.77256 1.53488 11C1.53488 12.5585 1.91094 14.0268 2.57659 15.3215C2.80078 15.7575 2.86135 16.2858 2.68548 16.7835L1.73542 19.4721C1.60646 19.8371 1.95802 20.1887 2.32299 20.0597L4.90492 19.1474C5.42256 18.9644 5.97236 19.0372 6.41809 19.2843C7.77498 20.0365 9.33629 20.4651 11 20.4651C16.2274 20.4651 20.4651 16.2274 20.4651 11C20.4651 5.77256 16.2274 1.53488 11 1.53488ZM0 11C0 4.92487 4.92487 0 11 0C17.0751 0 22 4.92487 22 11C22 17.0751 17.0751 22 11 22C9.06933 22 7.25269 21.5019 5.67391 20.6267C5.57731 20.5732 5.48331 20.5709 5.41629 20.5946L2.83437 21.5069C1.25283 22.0657 -0.270616 20.5423 0.288232 18.9608L1.23829 16.2721C1.26108 16.2076 1.26003 16.1176 1.21156 16.0233C0.436898 14.5166 0 12.8082 0 11Z" fill="#149AD6"/>
<g id="Dots">
<path id="Ellipse 37" d="M7.2139 11.0506C7.2139 11.757 6.64124 12.3296 5.93483 12.3296C5.22842 12.3296 4.65576 11.757 4.65576 11.0506C4.65576 10.3441 5.22842 9.77148 5.93483 9.77148C6.64124 9.77148 7.2139 10.3441 7.2139 11.0506Z" fill="#149AD6"/>
<path id="Ellipse 38" d="M12.3301 11.0504C12.3301 11.7568 11.7575 12.3295 11.051 12.3295C10.3446 12.3295 9.77197 11.7568 9.77197 11.0504C9.77197 10.344 10.3446 9.77133 11.051 9.77133C11.7575 9.77133 12.3301 10.344 12.3301 11.0504Z" fill="#149AD6"/>
<path id="Ellipse 39" d="M17.4463 11.0504C17.4463 11.7568 16.8737 12.3295 16.1673 12.3295C15.4608 12.3295 14.8882 11.7568 14.8882 11.0504C14.8882 10.344 15.4608 9.77133 16.1673 9.77133C16.8737 9.77133 17.4463 10.344 17.4463 11.0504Z" fill="#149AD6"/>
</g>
</g>
</svg>
