<svg width="28" height="28" viewBox="0 0 28 28" fill="none" xmlns="http://www.w3.org/2000/svg">
<path fill-rule="evenodd" clip-rule="evenodd" d="M16.1268 4.22564C14.8047 3.49068 13.1953 3.49068 11.8732 4.22563L5.06269 8.01156C4.56885 8.28608 4.56885 8.99886 5.06268 9.27338L11.8732 13.0593C13.1953 13.7943 14.8047 13.7943 16.1268 13.0593L22.9373 9.27338C23.4312 8.99886 23.4312 8.28608 22.9373 8.01156L16.1268 4.22564ZM11.0443 2.76583C12.8812 1.74472 15.1188 1.74472 16.9557 2.76584L23.7662 6.55176C25.4113 7.46622 25.4112 9.81873 23.7662 10.7332L22.5486 11.41L23.2643 11.7931L23.7662 12.0723C25.4113 12.9867 25.4113 15.3392 23.7662 16.2537L22.6716 16.8622L23.5335 17.2915C25.2632 18.153 25.3178 20.5857 23.6302 21.5239L16.9557 25.2342C15.1188 26.2553 12.8812 26.2553 11.0443 25.2342L4.46716 21.578C2.75084 20.6239 2.84385 18.1373 4.62966 17.3141L5.45608 16.9332L4.23376 16.2537C2.58874 15.3392 2.58875 12.9867 4.23376 12.0723L4.73271 11.7949L5.43144 11.399L4.23376 10.7332C2.58874 9.81873 2.58875 7.46621 4.23376 6.55176L11.0443 2.76583ZM7.15038 12.3545L5.56466 13.253L5.06269 13.5321C4.56885 13.8066 4.56885 14.5194 5.06268 14.7939L11.8732 18.5798C13.1953 19.3148 14.8047 19.3148 16.1268 18.5798L22.9373 14.7939C23.4311 14.5194 23.4311 13.8066 22.9373 13.5321L22.4413 13.2563L20.8039 12.3799L16.9557 14.5191C15.1188 15.5402 12.8812 15.5402 11.0443 14.5191L7.15038 12.3545ZM7.2727 17.943L5.34432 18.8319C4.80991 19.0782 4.7799 19.8312 5.29608 20.1182L11.8732 23.7744C13.1953 24.5093 14.8047 24.5093 16.1268 23.7744L22.8013 20.0641C23.3085 19.7821 23.2909 19.0452 22.7726 18.7871L20.8929 17.8509L16.9557 20.0396C15.1188 21.0607 12.8812 21.0607 11.0443 20.0396L7.2727 17.943Z" fill="#149AD6"/>
</svg>
