<svg width="22" height="22" viewBox="0 0 22 22" fill="none" xmlns="http://www.w3.org/2000/svg">
<g id="Download 2">
<path id="Rectangle 74 (Stroke)" fill-rule="evenodd" clip-rule="evenodd" d="M19.8103 16.6402L19.8103 10.73C19.8103 8.705 18.1713 7.06339 16.1494 7.06339L15.2483 7.06339C14.7817 7.06339 14.4034 6.68456 14.4034 6.21724C14.4034 5.74993 14.7817 5.37109 15.2483 5.37109L16.1494 5.37109C19.1045 5.37109 21.5 7.77037 21.5 10.73L21.5 16.6402C21.5 19.5998 19.1045 21.9991 16.1494 21.9991L5.85057 21.9991C2.89553 21.9991 0.499999 19.5998 0.5 16.6402L0.5 10.73C0.5 7.77037 2.89553 5.37109 5.85057 5.37109L6.75172 5.37109C7.21831 5.37109 7.59655 5.74993 7.59655 6.21724C7.59655 6.68456 7.21831 7.06339 6.75172 7.06339L5.85057 7.06339C3.8287 7.06339 2.18966 8.705 2.18966 10.73L2.18965 16.6402C2.18965 18.6652 3.8287 20.3068 5.85057 20.3068L16.1494 20.3068C18.1713 20.3068 19.8103 18.6652 19.8103 16.6402Z" fill="#149AD6"/>
<g id="Arrow">
<path id="Vector 140 (Stroke)" fill-rule="evenodd" clip-rule="evenodd" d="M11.1999 13.4096C11.0897 13.5211 10.9099 13.5211 10.7997 13.4096L8.41397 10.996C8.08571 10.6639 7.5508 10.6612 7.21922 10.99C6.88763 11.3187 6.88493 11.8545 7.21319 12.1866L9.59888 14.6002C10.3703 15.3807 11.6293 15.3807 12.4007 14.6002L14.7864 12.1866C15.1146 11.8545 15.1119 11.3187 14.7804 10.99C14.4488 10.6612 13.9139 10.6639 13.5856 10.996L11.1999 13.4096Z" fill="#149AD6"/>
<path id="Vector 141 (Stroke)" fill-rule="evenodd" clip-rule="evenodd" d="M11.0014 3.7794e-08C10.5348 5.86671e-08 10.1565 0.378834 10.1565 0.846148L10.1565 13.7403C10.1565 14.2076 10.5348 14.5865 11.0014 14.5865C11.4679 14.5865 11.8462 14.2076 11.8462 13.7403L11.8462 0.846148C11.8462 0.378834 11.4679 1.6921e-08 11.0014 3.7794e-08Z" fill="#149AD6"/>
</g>
</g>
</svg>
