<svg width="28" height="28" viewBox="0 0 28 28" fill="none" xmlns="http://www.w3.org/2000/svg">
<path fill-rule="evenodd" clip-rule="evenodd" d="M2 9.97393C2 8.26028 3.37438 6.87109 5.06977 6.87109H22.9302C24.6256 6.87109 26 8.26028 26 9.97393V11.841C26 13.2113 25.1108 14.4193 23.8123 14.813L15.5236 17.3264C14.5297 17.6278 13.4703 17.6277 12.4764 17.3264L4.18768 14.813C2.88921 14.4193 2 13.2113 2 11.841V9.97393ZM5.06977 8.56355C4.29914 8.56355 3.67442 9.195 3.67442 9.97393V11.841C3.67442 12.4638 4.07861 13.0129 4.66882 13.1919L12.9575 15.7053C13.6375 15.9115 14.3625 15.9115 15.0425 15.7053L23.3312 13.1919C23.9214 13.0129 24.3256 12.4638 24.3256 11.841V9.97393C24.3256 9.195 23.7009 8.56355 22.9302 8.56355H5.06977Z" fill="#149AD6"/>
<path fill-rule="evenodd" clip-rule="evenodd" d="M14.0007 10.7363C14.4631 10.7363 14.8379 11.1152 14.8379 11.5826L14.8379 13.5168C14.8379 13.9841 14.4631 14.363 14.0007 14.363C13.5383 14.363 13.1635 13.9841 13.1635 13.5168L13.1635 11.5826C13.1635 11.1152 13.5383 10.7363 14.0007 10.7363Z" fill="#149AD6"/>
<path fill-rule="evenodd" clip-rule="evenodd" d="M4.60411 13.5156V19.6406C4.60411 21.6659 6.22837 23.3076 8.23201 23.3076H19.7669C21.7705 23.3076 23.3948 21.6659 23.3948 19.6406V13.5156H25.0692V19.6406C25.0692 22.6006 22.6953 25.0001 19.7669 25.0001H8.23201C5.30361 25.0001 2.92969 22.6006 2.92969 19.6406V13.5156H4.60411Z" fill="#149AD6"/>
<path fill-rule="evenodd" clip-rule="evenodd" d="M9.44141 6.10284C9.44141 4.38919 10.8158 3 12.5112 3H15.4879C17.1833 3 18.5577 4.38919 18.5577 6.10284V7.71468H16.8833V6.10284C16.8833 5.32391 16.2585 4.69246 15.4879 4.69246H12.5112C11.7405 4.69246 11.1158 5.32391 11.1158 6.10284V7.71468H9.44141V6.10284Z" fill="#149AD6"/>
</svg>
