<svg width="32" height="32" viewBox="0 0 32 32" fill="none" xmlns="http://www.w3.org/2000/svg">
<path fill-rule="evenodd" clip-rule="evenodd" d="M9.77314 0.161877C11.6911 -0.592784 13.9389 1.53822 16 1.53822C18.0611 1.53822 20.3089 -0.592901 22.2269 0.161728C22.4187 0.237198 22.6088 0.316051 22.7971 0.398215C24.6855 1.22202 24.7693 4.31629 26.2261 5.77308C27.683 7.22997 30.7775 7.31353 31.6016 9.20193C31.6838 9.39038 31.7627 9.58061 31.8382 9.77254C32.593 11.6905 30.4617 13.9385 30.4617 15.9997C30.4617 18.0609 32.5932 20.3089 31.8385 22.227C31.7634 22.4179 31.6849 22.6072 31.6031 22.7947C30.7794 24.6836 27.6834 24.7671 26.2263 26.2243C24.769 27.6815 24.686 30.778 22.797 31.6021C22.609 31.6841 22.4193 31.7628 22.2279 31.8381C20.3097 32.593 18.0613 30.461 16 30.461C13.9386 30.461 11.6903 32.5928 9.77215 31.838C9.58073 31.7626 9.39101 31.6839 9.20305 31.6019C7.31441 30.7779 7.23099 27.6827 5.77396 26.2256C4.31698 24.7686 1.22188 24.6851 0.398042 22.7964C0.315936 22.6082 0.237136 22.4182 0.161716 22.2265C-0.592877 20.3085 1.53821 18.0607 1.53821 15.9997C1.53821 13.9387 -0.592659 11.6909 0.161994 9.77298C0.237615 9.5808 0.316632 9.39033 0.398972 9.20164C1.22298 7.31335 4.31719 7.2297 5.77401 5.77288C7.23074 4.31615 7.31463 1.2222 9.20287 0.398383C9.39121 0.316213 9.58132 0.237353 9.77314 0.161877Z" fill="url(#paint0_linear_157_3362)"/>
<circle cx="10.4" cy="15.9999" r="1.6" fill="white"/>
<circle cx="16" cy="15.9999" r="1.6" fill="white"/>
<circle cx="21.6" cy="15.9999" r="1.6" fill="white"/>
<defs>
<linearGradient id="paint0_linear_157_3362" x1="16" y1="-0.500001" x2="16" y2="31.5" gradientUnits="userSpaceOnUse">
<stop stop-color="#A6AEB9"/>
<stop offset="1" stop-color="#73808A"/>
</linearGradient>
</defs>
</svg>
