<svg width="24" height="24" viewBox="-4 -4 24 24" fill="none" xmlns="http://www.w3.org/2000/svg">
<g id="Search Icon">
<g id="Vector">
<path d="M6.55049 1.24132C9.48267 1.24132 11.8597 3.61842 11.8597 6.55072C11.8597 7.75578 11.4582 8.86708 10.7818 9.75815L14.5422 13.5231C14.8248 13.806 14.8245 14.2644 14.5416 14.5469C14.2587 14.8295 13.8003 14.8292 13.5177 14.5463L9.75778 10.7822C8.86675 11.4587 7.7555 11.8601 6.55049 11.8601C3.61832 11.8601 1.24132 9.48302 1.24132 6.55072C1.24132 3.61842 3.61832 1.24132 6.55049 1.24132ZM6.55049 2.68926C4.41801 2.68926 2.68926 4.41808 2.68926 6.55072C2.68926 8.68336 4.41801 10.4122 6.55049 10.4122C8.68298 10.4122 10.4117 8.68336 10.4117 6.55072C10.4117 4.41808 8.68298 2.68926 6.55049 2.68926Z" fill="#90939A"/>
<path fill-rule="evenodd" clip-rule="evenodd" d="M6.55049 1.48265C3.75161 1.48265 1.48265 3.75169 1.48265 6.55072C1.48265 9.34975 3.75161 11.6188 6.55049 11.6188C7.701 11.6188 8.76134 11.2357 9.61186 10.59L9.77964 10.4626L13.6885 14.3758C13.8769 14.5644 14.1825 14.5646 14.3711 14.3762C14.5596 14.1878 14.5598 13.8822 14.3714 13.6936L10.4623 9.77982L10.5896 9.61223C11.2352 8.76167 11.6183 7.70128 11.6183 6.55072C11.6183 3.75169 9.34938 1.48265 6.55049 1.48265ZM1 6.55072C1 3.48515 3.48503 1 6.55049 1C9.61596 1 12.101 3.48515 12.101 6.55072C12.101 7.73458 11.7301 8.83243 11.0983 9.73362L14.7129 13.3525C15.0897 13.7297 15.0893 14.3409 14.7121 14.7177C14.335 15.0944 13.7238 15.0941 13.347 14.7169L9.73307 11.0989C8.83194 11.7306 7.73422 12.1014 6.55049 12.1014C3.48503 12.1014 1 9.61629 1 6.55072ZM2.44794 6.55072C2.44794 4.28482 4.28472 2.44794 6.55049 2.44794C8.81627 2.44794 10.653 4.28482 10.653 6.55072C10.653 8.81663 8.81627 10.6535 6.55049 10.6535C4.28472 10.6535 2.44794 8.81663 2.44794 6.55072ZM6.55049 2.93059C4.5513 2.93059 2.93059 4.55135 2.93059 6.55072C2.93059 8.55009 4.5513 10.1709 6.55049 10.1709C8.54969 10.1709 10.1704 8.55009 10.1704 6.55072C10.1704 4.55135 8.54969 2.93059 6.55049 2.93059Z" fill="#90939A"/>
</g>
</g>
</svg>
