<svg width="28" height="28" viewBox="0 0 28 28" fill="none" xmlns="http://www.w3.org/2000/svg">
<g id="icons">
<g id="Vector">
<path d="M12.8001 6.60175C13.4628 5.79942 14.5372 5.79942 15.1999 6.60175L17.4234 9.29359C17.7074 9.63745 17.7074 10.1949 17.4234 10.5388C17.1393 10.8827 16.6789 10.8827 16.3948 10.5388L14.7273 8.51992V14.7862C14.7273 15.2725 14.4017 15.6667 14 15.6667C13.5983 15.6667 13.2727 15.2725 13.2727 14.7862V8.51992L11.6052 10.5388C11.3212 10.8827 10.8607 10.8827 10.5766 10.5388C10.2926 10.1949 10.2926 9.63745 10.5766 9.29359L12.8001 6.60175Z" fill="#010612"/>
<path d="M16.5455 20.4L11.4545 20.4C9.1952 20.4 7.36364 20.251 7.36364 17.6L7.36364 16.2C7.36364 15.7582 7.05838 15.4 6.68182 15.4C6.30526 15.4 6 15.7582 6 16.2V17.6C6 21.1338 8.44095 21.9987 11.4525 22H16.5455C19.5579 22 22 21.1346 22 17.6V16.2C22 15.7582 21.6947 15.4 21.3182 15.4C20.9416 15.4 20.6364 15.7582 20.6364 16.2V17.6C20.6364 20.251 18.8048 20.4 16.5455 20.4Z" fill="#010612"/>
</g>
</g>
</svg>
