<svg width="24" height="24" viewBox="-6 -6 24 24" fill="none" xmlns="http://www.w3.org/2000/svg">
<path d="M3.53034 0.219653C3.23744 -0.0732379 2.76257 -0.0732379 2.46967 0.219653L0.219668 2.46966C-0.0732226 2.76255 -0.0732226 3.23743 0.219668 3.53032C0.512566 3.82319 0.987436 3.82319 1.28033 3.53032L2.25 2.56065V11.25C2.25 11.6642 2.58579 12 3 12C3.41422 12 3.75001 11.6642 3.75001 11.25V2.56065L4.71968 3.53032C5.01256 3.82319 5.48746 3.82319 5.78033 3.53032C6.07321 3.23743 6.07321 2.76255 5.78033 2.46966L3.53034 0.219653Z" fill="#010612"/>
<path d="M9.53034 11.7803C9.23744 12.0732 8.76257 12.0732 8.46967 11.7803L6.21967 9.53033C5.92678 9.23743 5.92678 8.76256 6.21967 8.46966C6.51257 8.17679 6.98744 8.17679 7.28033 8.46966L8.25 9.43934V0.749982C8.25 0.335756 8.58579 -1.90735e-05 9 -1.90735e-05C9.41422 -1.90735e-05 9.75001 0.335756 9.75001 0.749982V9.43934L10.7197 8.46966C11.0126 8.17679 11.4875 8.17679 11.7803 8.46966C12.0732 8.76256 12.0732 9.23743 11.7803 9.53033L9.53034 11.7803Z" fill="#010612"/>
</svg>
