<svg width="32" height="33" viewBox="0 0 32 33" fill="none" xmlns="http://www.w3.org/2000/svg">
<rect y="0.5" width="32" height="32" rx="16" fill="url(#paint0_linear_123_1703)"/>
<path fill-rule="evenodd" clip-rule="evenodd" d="M14.6605 9.27739C15.4004 8.62189 16.6001 8.62189 17.3401 9.27739L20.9053 12.4357C21.2224 12.7167 21.2224 13.1721 20.9053 13.4531C20.5882 13.734 20.074 13.734 19.7569 13.4531L16.8123 10.8445L16.8123 23.495C16.8123 23.8923 16.4487 24.2143 16.0003 24.2143C15.5518 24.2143 15.1882 23.8923 15.1882 23.495L15.1882 10.8445L12.2436 13.4531C11.9265 13.734 11.4124 13.734 11.0953 13.4531C10.7781 13.1721 10.7781 12.7167 11.0953 12.4357L14.6605 9.27739L15.2347 9.78605L15.2473 9.7972M14.6605 9.27739L15.2347 9.78605L14.6605 9.27739Z" fill="white"/>
<defs>
<linearGradient id="paint0_linear_123_1703" x1="16" y1="-6.15861e-09" x2="16" y2="32" gradientUnits="userSpaceOnUse">
<stop stop-color="#149AD6"/>
<stop offset="1" stop-color="#138BC0"/>
</linearGradient>
</defs>
</svg>
