<svg width="32" height="32" viewBox="0 0 32 32" fill="none" xmlns="http://www.w3.org/2000/svg">
<rect width="32" height="32" rx="16" fill="url(#paint0_linear_123_1711)"/>
<path d="M11.6038 21.1431C11.4127 21.1431 11.2217 21.0702 11.076 20.9245C10.7846 20.6331 10.7846 20.1605 11.076 19.8688L19.8689 11.0762C20.1603 10.7848 20.6329 10.7848 20.9246 11.0762C21.216 11.3676 21.216 11.8402 20.9246 12.1319L12.1314 20.9245C11.9857 21.0702 11.7949 21.1431 11.6038 21.1431Z" fill="white"/>
<path d="M20.3964 21.1426C20.2054 21.1426 20.0143 21.0698 19.8686 20.9241L11.076 12.1312C10.7846 11.8398 10.7846 11.3672 11.076 11.0755C11.3674 10.7841 11.84 10.7841 12.1317 11.0755L20.9246 19.8684C21.216 20.1598 21.216 20.6324 20.9246 20.9241C20.7786 21.0698 20.5875 21.1426 20.3964 21.1426Z" fill="white"/>
<defs>
<linearGradient id="paint0_linear_123_1711" x1="16" y1="0" x2="16" y2="32" gradientUnits="userSpaceOnUse">
<stop stop-color="#CE0A0A"/>
<stop offset="1" stop-color="#BA0A0A"/>
</linearGradient>
</defs>
</svg>
