<svg width="32" height="32" viewBox="0 0 32 32" fill="none" xmlns="http://www.w3.org/2000/svg">
<rect width="32" height="32" rx="16" fill="url(#paint0_linear_123_1679)"/>
<path d="M15.6359 24.5715H16.3644C16.7245 24.5715 17.0169 24.2799 17.0169 23.919V21.0186C17.0169 20.6585 16.7252 20.3661 16.3644 20.3661H15.6359C15.2758 20.3661 14.9834 20.6577 14.9834 21.0186V23.919C14.9841 24.2799 15.2758 24.5715 15.6359 24.5715Z" fill="white"/>
<path d="M12.6554 18.831C12.4009 18.5765 11.9879 18.5765 11.7327 18.831L9.68205 20.8817C9.4276 21.1361 9.4276 21.5491 9.68205 21.8043L10.1969 22.3192C10.4514 22.5736 10.8643 22.5736 11.1196 22.3192L13.1702 20.2685C13.4247 20.014 13.4247 19.6011 13.1702 19.3459L12.6554 18.831Z" fill="white"/>
<path d="M8.08125 17.0157H10.9816C11.3417 17.0157 11.6342 16.724 11.6342 16.3631V15.6347C11.6342 15.2746 11.3425 14.9822 10.9816 14.9822L8.08125 14.9829C7.72039 14.9829 7.42871 15.2746 7.42871 15.6347V16.3631C7.42871 16.724 7.72037 17.0157 8.08125 17.0157Z" fill="white"/>
<path d="M11.7327 13.1701C11.9872 13.4246 12.4001 13.4246 12.6554 13.1701L13.1702 12.6552C13.4247 12.4008 13.4247 11.9878 13.1702 11.7326L11.1196 9.68193C10.8651 9.42747 10.4522 9.42747 10.1969 9.68193L9.68205 10.1968C9.4276 10.4513 9.4276 10.8642 9.68205 11.1194L11.7327 13.1701Z" fill="white"/>
<path d="M15.6352 11.6333H16.3636C16.7237 11.6333 17.0161 11.3416 17.0161 10.9807V8.08112C17.0161 7.72027 16.7245 7.42859 16.3644 7.42859H15.6359C15.2758 7.42859 14.9834 7.72025 14.9834 8.08112V10.9815C14.9834 11.3416 15.2751 11.6333 15.6352 11.6333Z" fill="white"/>
<path d="M19.3454 13.1701C19.5998 13.4246 20.0128 13.4246 20.268 13.1701L22.3187 11.1194C22.5731 10.865 22.5731 10.452 22.3187 10.1968L21.8038 9.68193C21.5493 9.42747 21.1364 9.42747 20.8812 9.68193L18.8305 11.7326C18.576 11.9871 18.576 12.4 18.8305 12.6552L19.3454 13.1701Z" fill="white"/>
<path d="M23.9191 14.9836H21.0187C20.6586 14.9836 20.3662 15.2753 20.3662 15.6362V16.3646C20.3662 16.7247 20.6579 17.0171 21.0187 17.0171H23.9191C24.2792 17.0171 24.5717 16.7255 24.5717 16.3646V15.6362C24.5717 15.2753 24.28 14.9836 23.9191 14.9836Z" fill="white"/>
<path d="M20.8812 22.3192C21.1356 22.5736 21.5486 22.5736 21.8038 22.3192L22.3187 21.8043C22.5731 21.5498 22.5731 21.1369 22.3187 20.8817L20.268 18.831C20.0135 18.5765 19.6006 18.5765 19.3454 18.831L18.8305 19.3459C18.576 19.6003 18.576 20.0133 18.8305 20.2685L20.8812 22.3192Z" fill="white"/>
<defs>
<linearGradient id="paint0_linear_123_1679" x1="16" y1="0" x2="16" y2="32" gradientUnits="userSpaceOnUse">
<stop stop-color="#90939A"/>
<stop offset="1" stop-color="#797C82"/>
</linearGradient>
</defs>
</svg>
