<svg width="160" height="60" viewBox="0 0 160 60" fill="none" xmlns="http://www.w3.org/2000/svg">
<g clip-path="url(#clip0_176_3123)">
<path d="M11.4153 0L14.0664 15.1432C14.6331 18.2128 14.9185 23.4229 15.3072 26.9631H15.4024C15.7787 23.5784 16.1592 17.7994 16.6432 15.1432L19.2902 0H30.7055V37.3915H22.8761V24.266C22.8761 20.6726 23.1118 11.0914 23.2897 7.9686H23.2442L18.1735 37.3915H12.503L7.43648 7.9686H7.38685C7.53161 10.5716 7.80044 19.1623 7.80044 24.2169V37.3915H0V0H11.4153Z" fill="#4C4C4C"/>
<path d="M50.2271 37.3874H42.6955V7.08048H34.498V0H60.1907V7.08048H50.2271V37.3874Z" fill="#4C4C4C"/>
<path d="M56.7993 13.5845V43.8914H0V50.5953H63.5782V13.5845H56.7993Z" fill="#149BD7"/>
<path d="M87.3599 20.3573V50.6438H82.7235V37.4037H74.8983V50.6438H70.2536V20.3573C70.2536 16.3873 73.7485 13.5797 78.8398 13.5797C83.8651 13.6001 87.3599 16.3873 87.3599 20.3573ZM74.8983 34.1254H82.7235V20.3573C82.7235 18.1881 81.2056 16.8089 78.8481 16.8089C76.4162 16.8089 74.8983 18.1881 74.8983 20.3573V34.1254Z" fill="#149BD7"/>
<path d="M159.93 24.1929L153.631 24.242V16.7236H149.383V24.2256H147.269V27.7577H149.383V50.669H153.631V27.7781L160 27.7331L159.93 24.1929Z" fill="#149BD7"/>
<path d="M143.287 31.609C143.28 30.2561 142.907 28.9298 142.205 27.7686C141.504 26.6074 140.5 25.654 139.299 25.0082C138.097 24.3624 136.743 24.0478 135.376 24.0973C134.01 24.1468 132.682 24.5587 131.532 25.2897V24.0906H128.029V50.6608H131.532V31.609C131.532 30.5322 131.964 29.4995 132.734 28.7381C133.503 27.9767 134.547 27.549 135.635 27.549C136.723 27.549 137.767 27.9767 138.536 28.7381C139.306 29.4995 139.738 30.5322 139.738 31.609V50.6526H143.291V31.609H143.287Z" fill="#149BD7"/>
<path d="M102.738 24.5812V25.809C101.56 25.0592 100.2 24.6364 98.8 24.5851C97.4004 24.5337 96.0125 24.8556 94.7817 25.5171C93.5509 26.1786 92.5225 27.1553 91.804 28.345C91.0855 29.5348 90.7034 30.8937 90.6977 32.2797V42.9659C90.7027 44.3522 91.0842 45.7117 91.8024 46.902C92.5206 48.0923 93.549 49.0696 94.7799 49.7316C96.0109 50.3936 97.399 50.7158 98.799 50.6646C100.199 50.6134 101.559 50.1907 102.738 49.4406V52.3056C102.755 52.8472 102.662 53.3867 102.465 53.8921C102.267 54.3975 101.969 54.8585 101.588 55.2477C101.207 55.6369 100.751 55.9463 100.247 56.1576C99.7428 56.369 99.2009 56.4779 98.6533 56.4779C98.1057 56.4779 97.5637 56.369 97.0595 56.1576C96.5553 55.9463 96.0992 55.6369 95.7182 55.2477C95.3372 54.8585 95.0392 54.3975 94.8418 53.8921C94.6444 53.3867 94.5516 52.8472 94.569 52.3056H90.9335C90.9426 54.3181 91.7445 56.2479 93.1686 57.6847C94.5928 59.1215 96.527 59.9521 98.5602 60H98.7464C100.78 59.9521 102.714 59.1215 104.138 57.6847C105.562 56.2479 106.364 54.3181 106.373 52.3056V40.543L106.427 32.3206V24.5894L102.738 24.5812ZM102.738 42.9577C102.738 44.0606 102.295 45.1182 101.507 45.898C100.719 46.6779 99.6499 47.116 98.5354 47.116C97.4209 47.116 96.3521 46.6779 95.564 45.898C94.776 45.1182 94.3333 44.0606 94.3333 42.9577V32.292C94.3333 31.1892 94.776 30.1315 95.564 29.3516C96.3521 28.5718 97.4209 28.1337 98.5354 28.1337C99.6499 28.1337 100.719 28.5718 101.507 29.3516C102.295 30.1315 102.738 31.1892 102.738 32.292V42.9577Z" fill="#149BD7"/>
<path d="M117.23 42.1763C121.221 42.1763 124.513 39.9294 124.513 37.1013V29.1532C124.513 26.321 121.205 24.029 117.23 24.029C113.164 24.029 109.876 26.321 109.876 29.1532V33.1068L109.806 45.5529V45.602C109.806 48.381 113.094 50.677 117.089 50.677C121.151 50.677 124.443 48.381 124.443 45.5529V43.2568H120.237V45.5529C120.237 46.7807 118.835 47.7466 117.085 47.7466C115.402 47.7466 114.004 46.7725 114.004 45.5529V41.6975C115.044 42.0382 116.135 42.2001 117.23 42.1763ZM114.095 29.1532C114.095 27.9253 115.493 26.9594 117.246 26.9594C118.926 26.9594 120.328 27.9335 120.328 29.1532V37.1095C120.328 38.28 118.926 39.2582 117.246 39.2582C115.493 39.2582 114.095 38.28 114.095 37.1095V29.1532Z" fill="#149BD7"/>
</g>
<defs>
<clipPath id="clip0_176_3123">
<rect width="160" height="60" fill="white"/>
</clipPath>
</defs>
</svg>
