<svg width="25" height="20" viewBox="0 0 25 20" fill="none" xmlns="http://www.w3.org/2000/svg">
<path d="M19.7523 14.7809H16.7905V2.79867H13.5669V0H23.6682V2.79867H19.7523V14.7809Z" fill="white"/>
<path d="M22.3357 5.36911V17.3513H0.00146484V20.001H24.9999V19.8697V17.3513V5.36911H22.3357Z" fill="white"/>
<path d="M4.49025 0L5.53371 5.9901C5.75688 7.2049 5.86797 9.26344 6.01775 10.6628H6.05445C6.20323 9.32562 6.35201 7.0401 6.53948 5.9901L7.58095 0H12.0692V14.7809H8.99439V9.59305C8.99439 8.172 9.09357 4.38451 9.16301 3.14899H9.14416L7.15147 14.7809H4.91874L2.92605 3.14899H2.90721C2.96374 4.17827 3.07483 7.57497 3.07483 9.57233V14.7809H0V0H4.49025Z" fill="white"/>
</svg>
